<svg id="Слой_1" data-name="Слой 1" xmlns="http://www.w3.org/2000/svg" viewBox="0 0 86.95 97.91"><defs><style>.cls-1,.cls-3{fill:#fff;}.cls-2{fill:#3eb5f1;}.cls-2,.cls-3{stroke:#fff;stroke-miterlimit:10;}</style></defs><path class="cls-1" d="M328.57,395.58l-.13.69a2.62,2.62,0,0,0,.25,1.92,2.5,2.5,0,0,0,4.57-.6,6.3,6.3,0,0,0-.19-3.44,12.78,12.78,0,0,0-1.39-2.67c-.5-.73-1-1.44-1.51-2.17a5.18,5.18,0,0,0-1.49-1.6,3,3,0,0,0-1.51-.42,3,3,0,0,0-1.95.81,2.5,2.5,0,0,0-.74,1.77,2.56,2.56,0,0,0,.74,1.77,2.52,2.52,0,0,0,1.76.73l.67-.09a2.5,2.5,0,0,0,1.1-.64l.07-.06-1.1.65.07,0-.66.09h.08l-.67-.09.09,0L326,392a.83.83,0,0,1,.16.09l-.5-.39a2.18,2.18,0,0,1,.22.21l-.39-.51c.56.74,1.06,1.53,1.59,2.29a12.48,12.48,0,0,1,1.3,2.2l-.26-.59a4.59,4.59,0,0,1,.33,1.15l-.09-.66a3.7,3.7,0,0,1,0,.94l.09-.66c0,.08,0,.16,0,.24l4.82,1.32.13-.68a2.75,2.75,0,0,0-.25-1.93,2.58,2.58,0,0,0-1.5-1.15,2.52,2.52,0,0,0-1.92.25,2.44,2.44,0,0,0-1.15,1.5Z" transform="translate(-280.08 -351.4)"/><path class="cls-2" d="M340.82,385.1a73.75,73.75,0,0,0-.31-7.63c-.18-2-.41-4.66-.94-8.05-1.55-9.9-2.32-14.86-5.42-16.6-2.22-1.25-5.88-1.35-8,.5-6.31,5.39,3.2,24.85,7.65,32.4,1,1.68,4.37,7.36,6,6.79C340.73,392.16,340.76,389.73,340.82,385.1Z" transform="translate(-280.08 -351.4)"/><path class="cls-2" d="M334.17,391.15a29.8,29.8,0,0,0-9.93-9c-.84-.47-17.41-9.49-23.83-3.47a6.3,6.3,0,0,0-2,3.66c-.56,4.76,5.92,9,37.61,12.85C336.33,394.28,335.61,393.24,334.17,391.15Z" transform="translate(-280.08 -351.4)"/><path class="cls-2" d="M340.16,395.79a2.54,2.54,0,0,0-1.72.18c-.95.52-1.07,1.67-1.64,3.92s-1.2,4-1.31,4.33a20.43,20.43,0,0,1-2.08,4.32,12.31,12.31,0,0,1-1.72,2.17A10.18,10.18,0,0,1,328,413.1c-2.34.78-4.48,0-6.9-.87s-2.58-1.44-6.4-3.15a32.9,32.9,0,0,0-4.39-1.73,20.16,20.16,0,0,0-8.59-.47c-4.45.86-6.4,2.53-7.35,3.94-.4.6-1,1.69-1.56,1.59s-.48-1.85-1.56-3.32a5.73,5.73,0,0,0-4.78-2.12,6.74,6.74,0,0,0-5.91,5.95,8.8,8.8,0,0,0,4,7.78,5.59,5.59,0,0,0,4.36,1.07,3,3,0,0,0,2.26-3.46h0a74.51,74.51,0,0,0,8.1,14.59c4.84,6.78,7.91,11.26,14,13.81s13.75,2.87,18.78.43a30.27,30.27,0,0,0,4.65-2.94,29.32,29.32,0,0,0,4.82-4.88c4.58-5.67,3.44-6.47,6.94-10.36,3.27-3.62,4.78-5.76,7.65-6.59a7.21,7.21,0,0,0,3.38-1.47c1.51-1.36.87-2.37,2.15-4.64,1.9-3.37,4.91-4,4.81-6.8,0-.1,0-.17,0-.23-.24-2.54-2.67-4.34-6.27-6.47-4.25-2.49-6.37-3.74-9.75-4.89A41.3,41.3,0,0,0,340.16,395.79Z" transform="translate(-280.08 -351.4)"/><ellipse class="cls-3" cx="63.75" cy="56.89" rx="3.24" ry="3.41"/><path class="cls-2" d="M335,391.94c-.2,0-4.44-10.72-5.25-12.07" transform="translate(-280.08 -351.4)"/><path class="cls-2" d="M320.74,370.29" transform="translate(-280.08 -351.4)"/></svg>